<svg width="114" height="30" viewBox="0 0 114 30" fill="none" xmlns="http://www.w3.org/2000/svg">
<rect width="114" height="30" fill="#F5F5F5"/>
<mask id="path-1-inside-1_0_1" fill="white">
<path d="M0 4C0 1.79086 1.79086 0 4 0H85C87.2091 0 89 1.79086 89 4V30H0V4Z"/>
</mask>
<path d="M0 4C0 1.79086 1.79086 0 4 0H85C87.2091 0 89 1.79086 89 4V30H0V4Z" fill="#383838"/>
<path d="M0 0H89H0ZM89 31H0V29H89V31ZM0 30V0V30ZM89 0V30V0Z" fill="#767676" mask="url(#path-1-inside-1_0_1)"/>
<path d="M22.7727 13H21.3636C21.2803 12.5947 21.1345 12.2386 20.9261 11.9318C20.7216 11.625 20.4716 11.3674 20.1761 11.1591C19.8845 10.947 19.5606 10.7879 19.2045 10.6818C18.8485 10.5758 18.4773 10.5227 18.0909 10.5227C17.3864 10.5227 16.7481 10.7008 16.1761 11.0568C15.608 11.4129 15.1553 11.9375 14.8182 12.6307C14.4848 13.3239 14.3182 14.1742 14.3182 15.1818C14.3182 16.1894 14.4848 17.0398 14.8182 17.733C15.1553 18.4261 15.608 18.9508 16.1761 19.3068C16.7481 19.6629 17.3864 19.8409 18.0909 19.8409C18.4773 19.8409 18.8485 19.7879 19.2045 19.6818C19.5606 19.5758 19.8845 19.4186 20.1761 19.2102C20.4716 18.9981 20.7216 18.7386 20.9261 18.4318C21.1345 18.1212 21.2803 17.7652 21.3636 17.3636H22.7727C22.6667 17.9583 22.4735 18.4905 22.1932 18.9602C21.9129 19.4299 21.5644 19.8295 21.1477 20.1591C20.7311 20.4848 20.2633 20.733 19.7443 20.9034C19.2292 21.0739 18.678 21.1591 18.0909 21.1591C17.0985 21.1591 16.2159 20.9167 15.4432 20.4318C14.6705 19.947 14.0625 19.2576 13.6193 18.3636C13.1761 17.4697 12.9545 16.4091 12.9545 15.1818C12.9545 13.9545 13.1761 12.8939 13.6193 12C14.0625 11.1061 14.6705 10.4167 15.4432 9.93182C16.2159 9.44697 17.0985 9.20455 18.0909 9.20455C18.678 9.20455 19.2292 9.28977 19.7443 9.46023C20.2633 9.63068 20.7311 9.88068 21.1477 10.2102C21.5644 10.536 21.9129 10.9337 22.1932 11.4034C22.4735 11.8693 22.6667 12.4015 22.7727 13ZM26.2088 9.36364V21H24.8679V9.36364H26.2088ZM32.3239 21.1818C31.483 21.1818 30.7576 20.9962 30.1477 20.625C29.5417 20.25 29.0739 19.7273 28.7443 19.0568C28.4186 18.3826 28.2557 17.5985 28.2557 16.7045C28.2557 15.8106 28.4186 15.0227 28.7443 14.3409C29.0739 13.6553 29.5322 13.1212 30.1193 12.7386C30.7102 12.3523 31.3996 12.1591 32.1875 12.1591C32.642 12.1591 33.0909 12.2348 33.5341 12.3864C33.9773 12.5379 34.3807 12.7841 34.7443 13.125C35.108 13.4621 35.3977 13.9091 35.6136 14.4659C35.8295 15.0227 35.9375 15.7083 35.9375 16.5227V17.0909H29.2102V15.9318H34.5739C34.5739 15.4394 34.4754 15 34.2784 14.6136C34.0852 14.2273 33.8087 13.9223 33.4489 13.6989C33.0928 13.4754 32.6723 13.3636 32.1875 13.3636C31.6534 13.3636 31.1913 13.4962 30.8011 13.7614C30.4148 14.0227 30.1174 14.3636 29.9091 14.7841C29.7008 15.2045 29.5966 15.6553 29.5966 16.1364V16.9091C29.5966 17.5682 29.7102 18.1269 29.9375 18.5852C30.1686 19.0398 30.4886 19.3864 30.8977 19.625C31.3068 19.8598 31.7822 19.9773 32.3239 19.9773C32.6761 19.9773 32.9943 19.928 33.2784 19.8295C33.5663 19.7273 33.8144 19.5758 34.0227 19.375C34.2311 19.1705 34.392 18.9167 34.5057 18.6136L35.8011 18.9773C35.6648 19.4167 35.4356 19.803 35.1136 20.1364C34.7917 20.4659 34.3939 20.7235 33.9205 20.9091C33.447 21.0909 32.9148 21.1818 32.3239 21.1818ZM40.5455 21.2045C39.9924 21.2045 39.4905 21.1004 39.0398 20.892C38.589 20.6799 38.2311 20.375 37.9659 19.9773C37.7008 19.5758 37.5682 19.0909 37.5682 18.5227C37.5682 18.0227 37.6667 17.6174 37.8636 17.3068C38.0606 16.9924 38.3239 16.7462 38.6534 16.5682C38.983 16.3902 39.3466 16.2576 39.7443 16.1705C40.1458 16.0795 40.5492 16.0076 40.9545 15.9545C41.4848 15.8864 41.9148 15.8352 42.2443 15.8011C42.5777 15.7633 42.8201 15.7008 42.9716 15.6136C43.1269 15.5265 43.2045 15.375 43.2045 15.1591V15.1136C43.2045 14.553 43.0511 14.1174 42.7443 13.8068C42.4413 13.4962 41.9811 13.3409 41.3636 13.3409C40.7235 13.3409 40.2216 13.4811 39.858 13.7614C39.4943 14.0417 39.2386 14.3409 39.0909 14.6591L37.8182 14.2045C38.0455 13.6742 38.3485 13.2614 38.7273 12.9659C39.1098 12.6667 39.5265 12.4583 39.9773 12.3409C40.4318 12.2197 40.8788 12.1591 41.3182 12.1591C41.5985 12.1591 41.9205 12.1932 42.2841 12.2614C42.6515 12.3258 43.0057 12.4602 43.3466 12.6648C43.6913 12.8693 43.9773 13.178 44.2045 13.5909C44.4318 14.0038 44.5455 14.5568 44.5455 15.25V21H43.2045V19.8182H43.1364C43.0455 20.0076 42.8939 20.2102 42.6818 20.4261C42.4697 20.642 42.1875 20.8258 41.8352 20.9773C41.483 21.1288 41.053 21.2045 40.5455 21.2045ZM40.75 20C41.2803 20 41.7273 19.8958 42.0909 19.6875C42.4583 19.4792 42.7348 19.2102 42.9205 18.8807C43.1098 18.5511 43.2045 18.2045 43.2045 17.8409V16.6136C43.1477 16.6818 43.0227 16.7443 42.8295 16.8011C42.6402 16.8542 42.4205 16.9015 42.1705 16.9432C41.9242 16.9811 41.6837 17.0152 41.4489 17.0455C41.2178 17.072 41.0303 17.0947 40.8864 17.1136C40.5379 17.1591 40.2121 17.233 39.9091 17.3352C39.6098 17.4337 39.3674 17.5833 39.1818 17.7841C39 17.9811 38.9091 18.25 38.9091 18.5909C38.9091 19.0568 39.0814 19.4091 39.4261 19.6477C39.7746 19.8826 40.2159 20 40.75 20ZM48.3338 15.75V21H46.9929V12.2727H48.2884V13.6364H48.402C48.6065 13.1932 48.9171 12.8371 49.3338 12.5682C49.7505 12.2955 50.2884 12.1591 50.9474 12.1591C51.5384 12.1591 52.0554 12.2803 52.4986 12.5227C52.9418 12.7614 53.2865 13.125 53.5327 13.6136C53.7789 14.0985 53.902 14.7121 53.902 15.4545V21H52.5611V15.5455C52.5611 14.8598 52.383 14.3258 52.027 13.9432C51.6709 13.5568 51.1823 13.3636 50.5611 13.3636C50.133 13.3636 49.7505 13.4564 49.4134 13.642C49.08 13.8277 48.8168 14.0985 48.6236 14.4545C48.4304 14.8106 48.3338 15.2424 48.3338 15.75ZM64.1705 9.36364H65.5795V17.0682C65.5795 17.8636 65.392 18.5739 65.017 19.1989C64.6458 19.8201 64.1212 20.3106 63.4432 20.6705C62.7652 21.0265 61.9697 21.2045 61.0568 21.2045C60.1439 21.2045 59.3485 21.0265 58.6705 20.6705C57.9924 20.3106 57.4659 19.8201 57.0909 19.1989C56.7197 18.5739 56.5341 17.8636 56.5341 17.0682V9.36364H57.9432V16.9545C57.9432 17.5227 58.0682 18.0284 58.3182 18.4716C58.5682 18.911 58.9242 19.2576 59.3864 19.5114C59.8523 19.7614 60.4091 19.8864 61.0568 19.8864C61.7045 19.8864 62.2614 19.7614 62.7273 19.5114C63.1932 19.2576 63.5492 18.911 63.7955 18.4716C64.0455 18.0284 64.1705 17.5227 64.1705 16.9545V9.36364ZM68.2116 24.2727V12.2727H69.5071V13.6591H69.6662C69.7647 13.5076 69.901 13.3144 70.0753 13.0795C70.2533 12.8409 70.5071 12.6288 70.8366 12.4432C71.17 12.2538 71.6207 12.1591 72.1889 12.1591C72.9238 12.1591 73.5715 12.3428 74.1321 12.7102C74.6927 13.0777 75.1302 13.5985 75.4446 14.2727C75.759 14.947 75.9162 15.7424 75.9162 16.6591C75.9162 17.5833 75.759 18.3845 75.4446 19.0625C75.1302 19.7367 74.6946 20.2595 74.1378 20.6307C73.581 20.9981 72.9389 21.1818 72.2116 21.1818C71.651 21.1818 71.2022 21.089 70.8651 20.9034C70.5279 20.714 70.2685 20.5 70.0866 20.2614C69.9048 20.0189 69.7647 19.8182 69.6662 19.6591H69.5526V24.2727H68.2116ZM69.5298 16.6364C69.5298 17.2955 69.6264 17.8769 69.8196 18.3807C70.0128 18.8807 70.295 19.2727 70.6662 19.5568C71.0374 19.8371 71.492 19.9773 72.0298 19.9773C72.5904 19.9773 73.0582 19.8295 73.4332 19.5341C73.812 19.2348 74.0961 18.8333 74.2855 18.3295C74.4787 17.822 74.5753 17.2576 74.5753 16.6364C74.5753 16.0227 74.4806 15.4697 74.2912 14.9773C74.1056 14.4811 73.8234 14.089 73.4446 13.8011C73.0696 13.5095 72.598 13.3636 72.0298 13.3636C71.4844 13.3636 71.026 13.5019 70.6548 13.7784C70.2836 14.0511 70.0033 14.4337 69.8139 14.9261C69.6245 15.4148 69.5298 15.9848 69.5298 16.6364Z" fill="#B2B2B2"/>
<path d="M102 11C102 9.93913 101.579 8.92172 100.828 8.17157C100.078 7.42143 99.0609 7 98 7H92V22H99C99.7956 22 100.559 22.3161 101.121 22.8787C101.684 23.4413 102 24.2044 102 25M102 11V25M102 11C102 9.93913 102.421 8.92172 103.172 8.17157C103.922 7.42143 104.939 7 106 7H112V22H105C104.204 22 103.441 22.3161 102.879 22.8787C102.316 23.4413 102 24.2044 102 25" stroke="#1E1E1E" stroke-width="2.5" stroke-linecap="round" stroke-linejoin="round"/>
</svg>
